<?xml version="1.0" encoding="UTF-8" standalone="no"?>
<!DOCTYPE svg PUBLIC "-//W3C//DTD SVG 1.1//EN"
 "http://www.w3.org/Graphics/SVG/1.1/DTD/svg11.dtd">
<!-- Generated by graphviz version 7.1.0 (20230121.1956)
 -->
<!-- Pages: 1 -->
<svg width="2965pt" height="210pt"
 viewBox="0.00 0.00 2965.00 210.00" xmlns="http://www.w3.org/2000/svg" xmlns:xlink="http://www.w3.org/1999/xlink">
<g id="graph0" class="graph" transform="scale(1 1) rotate(0) translate(4 206)">
<polygon fill="white" stroke="none" points="-4,4 -4,-206 2961,-206 2961,4 -4,4"/>
<!-- 2151180011920 -->
<g id="node1" class="node">
<title>2151180011920</title>
<polygon fill="none" stroke="black" points="1702.5,-81.5 1702.5,-117.5 1886.5,-117.5 1886.5,-81.5 1702.5,-81.5"/>
<text text-anchor="middle" x="1712.5" y="-95.8" font-family="Times New Roman,serif" font-size="14.00"> </text>
<polyline fill="none" stroke="black" points="1722.5,-81.5 1722.5,-117.5"/>
<text text-anchor="middle" x="1763" y="-95.8" font-family="Times New Roman,serif" font-size="14.00">data 5.8284</text>
<polyline fill="none" stroke="black" points="1803.5,-81.5 1803.5,-117.5"/>
<text text-anchor="middle" x="1845" y="-95.8" font-family="Times New Roman,serif" font-size="14.00">grad 0.0429</text>
</g>
<!-- 2151180012176+ -->
<g id="node14" class="node">
<title>2151180012176+</title>
<ellipse fill="none" stroke="black" cx="1952" cy="-71.5" rx="27" ry="18"/>
<text text-anchor="middle" x="1952" y="-67.8" font-family="Times New Roman,serif" font-size="14.00">+</text>
</g>
<!-- 2151180011920&#45;&gt;2151180012176+ -->
<g id="edge15" class="edge">
<title>2151180011920&#45;&gt;2151180012176+</title>
<path fill="none" stroke="black" d="M1886.4,-83.13C1896.27,-81.35 1905.85,-79.63 1914.48,-78.08"/>
<polygon fill="black" stroke="black" points="1914.88,-81.56 1924.1,-76.34 1913.64,-74.67 1914.88,-81.56"/>
</g>
<!-- 2151180011856+ -->
<g id="node21" class="node">
<title>2151180011856+</title>
<ellipse fill="none" stroke="black" cx="1952" cy="-126.5" rx="27" ry="18"/>
<text text-anchor="middle" x="1952" y="-122.8" font-family="Times New Roman,serif" font-size="14.00">+</text>
</g>
<!-- 2151180011920&#45;&gt;2151180011856+ -->
<g id="edge18" class="edge">
<title>2151180011920&#45;&gt;2151180011856+</title>
<path fill="none" stroke="black" d="M1886.4,-115.28C1896.27,-117 1905.85,-118.66 1914.48,-120.16"/>
<polygon fill="black" stroke="black" points="1913.65,-123.57 1924.1,-121.83 1914.84,-116.67 1913.65,-123.57"/>
</g>
<!-- 2151180011920exp -->
<g id="node2" class="node">
<title>2151180011920exp</title>
<ellipse fill="none" stroke="black" cx="1637" cy="-99.5" rx="27" ry="18"/>
<text text-anchor="middle" x="1637" y="-95.8" font-family="Times New Roman,serif" font-size="14.00">exp</text>
</g>
<!-- 2151180011920exp&#45;&gt;2151180011920 -->
<g id="edge1" class="edge">
<title>2151180011920exp&#45;&gt;2151180011920</title>
<path fill="none" stroke="black" d="M1664.38,-99.5C1672.31,-99.5 1681.53,-99.5 1691.33,-99.5"/>
<polygon fill="black" stroke="black" points="1691.09,-103 1701.09,-99.5 1691.09,-96 1691.09,-103"/>
</g>
<!-- 2151180011600 -->
<g id="node3" class="node">
<title>2151180011600</title>
<polygon fill="none" stroke="black" points="328,-110.5 328,-146.5 550,-146.5 550,-110.5 328,-110.5"/>
<text text-anchor="middle" x="354.5" y="-124.8" font-family="Times New Roman,serif" font-size="14.00">x1*w1</text>
<polyline fill="none" stroke="black" points="381,-110.5 381,-146.5"/>
<text text-anchor="middle" x="424" y="-124.8" font-family="Times New Roman,serif" font-size="14.00">data &#45;6.0000</text>
<polyline fill="none" stroke="black" points="467,-110.5 467,-146.5"/>
<text text-anchor="middle" x="508.5" y="-124.8" font-family="Times New Roman,serif" font-size="14.00">grad 0.5000</text>
</g>
<!-- 2151180009936+ -->
<g id="node18" class="node">
<title>2151180009936+</title>
<ellipse fill="none" stroke="black" cx="613" cy="-100.5" rx="27" ry="18"/>
<text text-anchor="middle" x="613" y="-96.8" font-family="Times New Roman,serif" font-size="14.00">+</text>
</g>
<!-- 2151180011600&#45;&gt;2151180009936+ -->
<g id="edge20" class="edge">
<title>2151180011600&#45;&gt;2151180009936+</title>
<path fill="none" stroke="black" d="M549.9,-110.61C558.91,-109.14 567.54,-107.74 575.34,-106.47"/>
<polygon fill="black" stroke="black" points="575.7,-109.95 585.01,-104.89 574.58,-103.05 575.7,-109.95"/>
</g>
<!-- 2151180011600* -->
<g id="node4" class="node">
<title>2151180011600*</title>
<ellipse fill="none" stroke="black" cx="265" cy="-128.5" rx="27" ry="18"/>
<text text-anchor="middle" x="265" y="-124.8" font-family="Times New Roman,serif" font-size="14.00">*</text>
</g>
<!-- 2151180011600*&#45;&gt;2151180011600 -->
<g id="edge2" class="edge">
<title>2151180011600*&#45;&gt;2151180011600</title>
<path fill="none" stroke="black" d="M292.5,-128.5C299.65,-128.5 307.89,-128.5 316.72,-128.5"/>
<polygon fill="black" stroke="black" points="316.69,-132 326.68,-128.5 316.68,-125 316.69,-132"/>
</g>
<!-- 2151180012112 -->
<g id="node5" class="node">
<title>2151180012112</title>
<polygon fill="none" stroke="black" points="1700.5,-26.5 1700.5,-62.5 1888.5,-62.5 1888.5,-26.5 1700.5,-26.5"/>
<text text-anchor="middle" x="1710.5" y="-40.8" font-family="Times New Roman,serif" font-size="14.00"> </text>
<polyline fill="none" stroke="black" points="1720.5,-26.5 1720.5,-62.5"/>
<text text-anchor="middle" x="1761" y="-40.8" font-family="Times New Roman,serif" font-size="14.00">data 1.0000</text>
<polyline fill="none" stroke="black" points="1801.5,-26.5 1801.5,-62.5"/>
<text text-anchor="middle" x="1845" y="-40.8" font-family="Times New Roman,serif" font-size="14.00">grad &#45;0.1036</text>
</g>
<!-- 2151180012112&#45;&gt;2151180012176+ -->
<g id="edge17" class="edge">
<title>2151180012112&#45;&gt;2151180012176+</title>
<path fill="none" stroke="black" d="M1888.2,-60.6C1897.38,-62.19 1906.27,-63.73 1914.33,-65.13"/>
<polygon fill="black" stroke="black" points="1913.54,-68.55 1923.99,-66.81 1914.74,-61.65 1913.54,-68.55"/>
</g>
<!-- 2151180009616 -->
<g id="node6" class="node">
<title>2151180009616</title>
<polygon fill="none" stroke="black" points="328,-55.5 328,-91.5 550,-91.5 550,-55.5 328,-55.5"/>
<text text-anchor="middle" x="354.5" y="-69.8" font-family="Times New Roman,serif" font-size="14.00">x2*w2</text>
<polyline fill="none" stroke="black" points="381,-55.5 381,-91.5"/>
<text text-anchor="middle" x="424" y="-69.8" font-family="Times New Roman,serif" font-size="14.00">data &#45;0.0000</text>
<polyline fill="none" stroke="black" points="467,-55.5 467,-91.5"/>
<text text-anchor="middle" x="508.5" y="-69.8" font-family="Times New Roman,serif" font-size="14.00">grad 0.5000</text>
</g>
<!-- 2151180009616&#45;&gt;2151180009936+ -->
<g id="edge12" class="edge">
<title>2151180009616&#45;&gt;2151180009936+</title>
<path fill="none" stroke="black" d="M549.9,-90.75C558.72,-92.14 567.17,-93.46 574.84,-94.67"/>
<polygon fill="black" stroke="black" points="574.29,-98.12 584.71,-96.22 575.37,-91.21 574.29,-98.12"/>
</g>
<!-- 2151180009616* -->
<g id="node7" class="node">
<title>2151180009616*</title>
<ellipse fill="none" stroke="black" cx="265" cy="-73.5" rx="27" ry="18"/>
<text text-anchor="middle" x="265" y="-69.8" font-family="Times New Roman,serif" font-size="14.00">*</text>
</g>
<!-- 2151180009616*&#45;&gt;2151180009616 -->
<g id="edge3" class="edge">
<title>2151180009616*&#45;&gt;2151180009616</title>
<path fill="none" stroke="black" d="M292.5,-73.5C299.65,-73.5 307.89,-73.5 316.72,-73.5"/>
<polygon fill="black" stroke="black" points="316.69,-77 326.68,-73.5 316.68,-70 316.69,-77"/>
</g>
<!-- 2151180011664 -->
<g id="node8" class="node">
<title>2151180011664</title>
<polygon fill="none" stroke="black" points="0,-55.5 0,-91.5 202,-91.5 202,-55.5 0,-55.5"/>
<text text-anchor="middle" x="16.5" y="-69.8" font-family="Times New Roman,serif" font-size="14.00">w2</text>
<polyline fill="none" stroke="black" points="33,-55.5 33,-91.5"/>
<text text-anchor="middle" x="76" y="-69.8" font-family="Times New Roman,serif" font-size="14.00">data &#45;1.0000</text>
<polyline fill="none" stroke="black" points="119,-55.5 119,-91.5"/>
<text text-anchor="middle" x="160.5" y="-69.8" font-family="Times New Roman,serif" font-size="14.00">grad 0.0000</text>
</g>
<!-- 2151180011664&#45;&gt;2151180009616* -->
<g id="edge19" class="edge">
<title>2151180011664&#45;&gt;2151180009616*</title>
<path fill="none" stroke="black" d="M201.83,-73.5C210.46,-73.5 218.79,-73.5 226.4,-73.5"/>
<polygon fill="black" stroke="black" points="226.18,-77 236.18,-73.5 226.18,-70 226.18,-77"/>
</g>
<!-- 2151179959952 -->
<g id="node9" class="node">
<title>2151179959952</title>
<polygon fill="none" stroke="black" points="2,-165.5 2,-201.5 200,-201.5 200,-165.5 2,-165.5"/>
<text text-anchor="middle" x="17" y="-179.8" font-family="Times New Roman,serif" font-size="14.00">x1</text>
<polyline fill="none" stroke="black" points="32,-165.5 32,-201.5"/>
<text text-anchor="middle" x="72.5" y="-179.8" font-family="Times New Roman,serif" font-size="14.00">data 2.0000</text>
<polyline fill="none" stroke="black" points="113,-165.5 113,-201.5"/>
<text text-anchor="middle" x="156.5" y="-179.8" font-family="Times New Roman,serif" font-size="14.00">grad &#45;1.5000</text>
</g>
<!-- 2151179959952&#45;&gt;2151180011600* -->
<g id="edge14" class="edge">
<title>2151179959952&#45;&gt;2151180011600*</title>
<path fill="none" stroke="black" d="M173.99,-165.56C183.48,-162.75 193.03,-159.71 202,-156.5 212.1,-152.88 222.83,-148.31 232.49,-143.91"/>
<polygon fill="black" stroke="black" points="233.88,-147.12 241.46,-139.72 230.92,-140.78 233.88,-147.12"/>
</g>
<!-- 2151180011152 -->
<g id="node10" class="node">
<title>2151180011152</title>
<polygon fill="none" stroke="black" points="0,-110.5 0,-146.5 202,-146.5 202,-110.5 0,-110.5"/>
<text text-anchor="middle" x="16.5" y="-124.8" font-family="Times New Roman,serif" font-size="14.00">w1</text>
<polyline fill="none" stroke="black" points="33,-110.5 33,-146.5"/>
<text text-anchor="middle" x="76" y="-124.8" font-family="Times New Roman,serif" font-size="14.00">data &#45;3.0000</text>
<polyline fill="none" stroke="black" points="119,-110.5 119,-146.5"/>
<text text-anchor="middle" x="160.5" y="-124.8" font-family="Times New Roman,serif" font-size="14.00">grad 1.0000</text>
</g>
<!-- 2151180011152&#45;&gt;2151180011600* -->
<g id="edge21" class="edge">
<title>2151180011152&#45;&gt;2151180011600*</title>
<path fill="none" stroke="black" d="M201.83,-128.5C210.46,-128.5 218.79,-128.5 226.4,-128.5"/>
<polygon fill="black" stroke="black" points="226.18,-132 236.18,-128.5 226.18,-125 226.18,-132"/>
</g>
<!-- 2151180011728 -->
<g id="node11" class="node">
<title>2151180011728</title>
<polygon fill="none" stroke="black" points="719.5,-137.5 719.5,-173.5 907.5,-173.5 907.5,-137.5 719.5,-137.5"/>
<text text-anchor="middle" x="731.5" y="-151.8" font-family="Times New Roman,serif" font-size="14.00">b</text>
<polyline fill="none" stroke="black" points="743.5,-137.5 743.5,-173.5"/>
<text text-anchor="middle" x="784" y="-151.8" font-family="Times New Roman,serif" font-size="14.00">data 6.8814</text>
<polyline fill="none" stroke="black" points="824.5,-137.5 824.5,-173.5"/>
<text text-anchor="middle" x="866" y="-151.8" font-family="Times New Roman,serif" font-size="14.00">grad 0.5000</text>
</g>
<!-- 2151180011984+ -->
<g id="node23" class="node">
<title>2151180011984+</title>
<ellipse fill="none" stroke="black" cx="1014" cy="-127.5" rx="27" ry="18"/>
<text text-anchor="middle" x="1014" y="-123.8" font-family="Times New Roman,serif" font-size="14.00">+</text>
</g>
<!-- 2151180011728&#45;&gt;2151180011984+ -->
<g id="edge28" class="edge">
<title>2151180011728&#45;&gt;2151180011984+</title>
<path fill="none" stroke="black" d="M907.36,-142.4C931.59,-138.98 956.33,-135.49 975.77,-132.75"/>
<polygon fill="black" stroke="black" points="976.23,-136.22 985.64,-131.36 975.25,-129.29 976.23,-136.22"/>
</g>
<!-- 2151179404944 -->
<g id="node12" class="node">
<title>2151179404944</title>
<polygon fill="none" stroke="black" points="1700,-136.5 1700,-172.5 1889,-172.5 1889,-136.5 1700,-136.5"/>
<text text-anchor="middle" x="1710" y="-150.8" font-family="Times New Roman,serif" font-size="14.00"> </text>
<polyline fill="none" stroke="black" points="1720,-136.5 1720,-172.5"/>
<text text-anchor="middle" x="1763" y="-150.8" font-family="Times New Roman,serif" font-size="14.00">data &#45;1.0000</text>
<polyline fill="none" stroke="black" points="1806,-136.5 1806,-172.5"/>
<text text-anchor="middle" x="1847.5" y="-150.8" font-family="Times New Roman,serif" font-size="14.00">grad 0.1464</text>
</g>
<!-- 2151179404944&#45;&gt;2151180011856+ -->
<g id="edge25" class="edge">
<title>2151179404944&#45;&gt;2151180011856+</title>
<path fill="none" stroke="black" d="M1888.65,-137.73C1897.58,-136.12 1906.23,-134.56 1914.11,-133.14"/>
<polygon fill="black" stroke="black" points="1914.68,-136.6 1923.9,-131.38 1913.44,-129.71 1914.68,-136.6"/>
</g>
<!-- 2151180012176 -->
<g id="node13" class="node">
<title>2151180012176</title>
<polygon fill="none" stroke="black" points="2015,-53.5 2015,-89.5 2203,-89.5 2203,-53.5 2015,-53.5"/>
<text text-anchor="middle" x="2025" y="-67.8" font-family="Times New Roman,serif" font-size="14.00"> </text>
<polyline fill="none" stroke="black" points="2035,-53.5 2035,-89.5"/>
<text text-anchor="middle" x="2075.5" y="-67.8" font-family="Times New Roman,serif" font-size="14.00">data 6.8284</text>
<polyline fill="none" stroke="black" points="2116,-53.5 2116,-89.5"/>
<text text-anchor="middle" x="2159.5" y="-67.8" font-family="Times New Roman,serif" font-size="14.00">grad &#45;0.1036</text>
</g>
<!-- 2151180012368**&#45;1 -->
<g id="node25" class="node">
<title>2151180012368**&#45;1</title>
<ellipse fill="none" stroke="black" cx="2331" cy="-71.5" rx="27" ry="18"/>
<text text-anchor="middle" x="2331" y="-67.8" font-family="Times New Roman,serif" font-size="14.00">**&#45;1</text>
</g>
<!-- 2151180012176&#45;&gt;2151180012368**&#45;1 -->
<g id="edge23" class="edge">
<title>2151180012176&#45;&gt;2151180012368**&#45;1</title>
<path fill="none" stroke="black" d="M2202.98,-71.5C2234.42,-71.5 2267.77,-71.5 2292.4,-71.5"/>
<polygon fill="black" stroke="black" points="2292.23,-75 2302.23,-71.5 2292.23,-68 2292.23,-75"/>
</g>
<!-- 2151180012176+&#45;&gt;2151180012176 -->
<g id="edge4" class="edge">
<title>2151180012176+&#45;&gt;2151180012176</title>
<path fill="none" stroke="black" d="M1979.29,-71.5C1986.52,-71.5 1994.82,-71.5 2003.66,-71.5"/>
<polygon fill="black" stroke="black" points="2003.57,-75 2013.57,-71.5 2003.57,-68 2003.57,-75"/>
</g>
<!-- 2151180011792 -->
<g id="node15" class="node">
<title>2151180011792</title>
<polygon fill="none" stroke="black" points="1390,-81.5 1390,-117.5 1574,-117.5 1574,-81.5 1390,-81.5"/>
<text text-anchor="middle" x="1400" y="-95.8" font-family="Times New Roman,serif" font-size="14.00"> </text>
<polyline fill="none" stroke="black" points="1410,-81.5 1410,-117.5"/>
<text text-anchor="middle" x="1450.5" y="-95.8" font-family="Times New Roman,serif" font-size="14.00">data 1.7627</text>
<polyline fill="none" stroke="black" points="1491,-81.5 1491,-117.5"/>
<text text-anchor="middle" x="1532.5" y="-95.8" font-family="Times New Roman,serif" font-size="14.00">grad 0.2500</text>
</g>
<!-- 2151180011792&#45;&gt;2151180011920exp -->
<g id="edge16" class="edge">
<title>2151180011792&#45;&gt;2151180011920exp</title>
<path fill="none" stroke="black" d="M1573.77,-99.5C1582.38,-99.5 1590.75,-99.5 1598.4,-99.5"/>
<polygon fill="black" stroke="black" points="1598.27,-103 1608.27,-99.5 1598.27,-96 1598.27,-103"/>
</g>
<!-- 2151180011792* -->
<g id="node16" class="node">
<title>2151180011792*</title>
<ellipse fill="none" stroke="black" cx="1327" cy="-99.5" rx="27" ry="18"/>
<text text-anchor="middle" x="1327" y="-95.8" font-family="Times New Roman,serif" font-size="14.00">*</text>
</g>
<!-- 2151180011792*&#45;&gt;2151180011792 -->
<g id="edge5" class="edge">
<title>2151180011792*&#45;&gt;2151180011792</title>
<path fill="none" stroke="black" d="M1354.3,-99.5C1361.57,-99.5 1369.92,-99.5 1378.8,-99.5"/>
<polygon fill="black" stroke="black" points="1378.76,-103 1388.76,-99.5 1378.76,-96 1378.76,-103"/>
</g>
<!-- 2151180009936 -->
<g id="node17" class="node">
<title>2151180009936</title>
<polygon fill="none" stroke="black" points="676,-82.5 676,-118.5 951,-118.5 951,-82.5 676,-82.5"/>
<text text-anchor="middle" x="729" y="-96.8" font-family="Times New Roman,serif" font-size="14.00">x1*w1 + x2*w2</text>
<polyline fill="none" stroke="black" points="782,-82.5 782,-118.5"/>
<text text-anchor="middle" x="825" y="-96.8" font-family="Times New Roman,serif" font-size="14.00">data &#45;6.0000</text>
<polyline fill="none" stroke="black" points="868,-82.5 868,-118.5"/>
<text text-anchor="middle" x="909.5" y="-96.8" font-family="Times New Roman,serif" font-size="14.00">grad 0.5000</text>
</g>
<!-- 2151180009936&#45;&gt;2151180011984+ -->
<g id="edge22" class="edge">
<title>2151180009936&#45;&gt;2151180011984+</title>
<path fill="none" stroke="black" d="M946.63,-118.47C957.13,-119.9 967.07,-121.25 975.91,-122.46"/>
<polygon fill="black" stroke="black" points="975.36,-125.91 985.74,-123.79 976.3,-118.98 975.36,-125.91"/>
</g>
<!-- 2151180009936+&#45;&gt;2151180009936 -->
<g id="edge6" class="edge">
<title>2151180009936+&#45;&gt;2151180009936</title>
<path fill="none" stroke="black" d="M640.36,-100.5C647.56,-100.5 655.89,-100.5 664.94,-100.5"/>
<polygon fill="black" stroke="black" points="664.78,-104 674.78,-100.5 664.78,-97 664.78,-104"/>
</g>
<!-- 2151179957008 -->
<g id="node19" class="node">
<title>2151179957008</title>
<polygon fill="none" stroke="black" points="2,-0.5 2,-36.5 200,-36.5 200,-0.5 2,-0.5"/>
<text text-anchor="middle" x="17" y="-14.8" font-family="Times New Roman,serif" font-size="14.00">x2</text>
<polyline fill="none" stroke="black" points="32,-0.5 32,-36.5"/>
<text text-anchor="middle" x="72.5" y="-14.8" font-family="Times New Roman,serif" font-size="14.00">data 0.0000</text>
<polyline fill="none" stroke="black" points="113,-0.5 113,-36.5"/>
<text text-anchor="middle" x="156.5" y="-14.8" font-family="Times New Roman,serif" font-size="14.00">grad &#45;0.5000</text>
</g>
<!-- 2151179957008&#45;&gt;2151180009616* -->
<g id="edge27" class="edge">
<title>2151179957008&#45;&gt;2151180009616*</title>
<path fill="none" stroke="black" d="M173.99,-36.44C183.48,-39.25 193.03,-42.29 202,-45.5 212.1,-49.12 222.83,-53.69 232.49,-58.09"/>
<polygon fill="black" stroke="black" points="230.92,-61.22 241.46,-62.28 233.88,-54.88 230.92,-61.22"/>
</g>
<!-- 2151180011856 -->
<g id="node20" class="node">
<title>2151180011856</title>
<polygon fill="none" stroke="black" points="2239,-108.5 2239,-144.5 2423,-144.5 2423,-108.5 2239,-108.5"/>
<text text-anchor="middle" x="2249" y="-122.8" font-family="Times New Roman,serif" font-size="14.00"> </text>
<polyline fill="none" stroke="black" points="2259,-108.5 2259,-144.5"/>
<text text-anchor="middle" x="2299.5" y="-122.8" font-family="Times New Roman,serif" font-size="14.00">data 4.8284</text>
<polyline fill="none" stroke="black" points="2340,-108.5 2340,-144.5"/>
<text text-anchor="middle" x="2381.5" y="-122.8" font-family="Times New Roman,serif" font-size="14.00">grad 0.1464</text>
</g>
<!-- 2151180012496* -->
<g id="node28" class="node">
<title>2151180012496*</title>
<ellipse fill="none" stroke="black" cx="2706" cy="-98.5" rx="27" ry="18"/>
<text text-anchor="middle" x="2706" y="-94.8" font-family="Times New Roman,serif" font-size="14.00">*</text>
</g>
<!-- 2151180011856&#45;&gt;2151180012496* -->
<g id="edge13" class="edge">
<title>2151180011856&#45;&gt;2151180012496*</title>
<path fill="none" stroke="black" d="M2422.77,-119.69C2501.28,-113.79 2610.86,-105.57 2667.61,-101.31"/>
<polygon fill="black" stroke="black" points="2667.67,-104.81 2677.38,-100.57 2667.15,-97.83 2667.67,-104.81"/>
</g>
<!-- 2151180011856+&#45;&gt;2151180011856 -->
<g id="edge7" class="edge">
<title>2151180011856+&#45;&gt;2151180011856</title>
<path fill="none" stroke="black" d="M1979.21,-126.5C2029.82,-126.5 2143.42,-126.5 2227.71,-126.5"/>
<polygon fill="black" stroke="black" points="2227.63,-130 2237.63,-126.5 2227.63,-123 2227.63,-130"/>
</g>
<!-- 2151180011984 -->
<g id="node22" class="node">
<title>2151180011984</title>
<polygon fill="none" stroke="black" points="1077,-109.5 1077,-145.5 1264,-145.5 1264,-109.5 1077,-109.5"/>
<text text-anchor="middle" x="1088.5" y="-123.8" font-family="Times New Roman,serif" font-size="14.00">n</text>
<polyline fill="none" stroke="black" points="1100,-109.5 1100,-145.5"/>
<text text-anchor="middle" x="1140.5" y="-123.8" font-family="Times New Roman,serif" font-size="14.00">data 0.8814</text>
<polyline fill="none" stroke="black" points="1181,-109.5 1181,-145.5"/>
<text text-anchor="middle" x="1222.5" y="-123.8" font-family="Times New Roman,serif" font-size="14.00">grad 0.5000</text>
</g>
<!-- 2151180011984&#45;&gt;2151180011792* -->
<g id="edge24" class="edge">
<title>2151180011984&#45;&gt;2151180011792*</title>
<path fill="none" stroke="black" d="M1263.6,-110.81C1272.72,-109.16 1281.55,-107.56 1289.56,-106.1"/>
<polygon fill="black" stroke="black" points="1289.94,-109.59 1299.16,-104.36 1288.7,-102.7 1289.94,-109.59"/>
</g>
<!-- 2151180011984+&#45;&gt;2151180011984 -->
<g id="edge8" class="edge">
<title>2151180011984+&#45;&gt;2151180011984</title>
<path fill="none" stroke="black" d="M1041.21,-127.5C1048.47,-127.5 1056.83,-127.5 1065.71,-127.5"/>
<polygon fill="black" stroke="black" points="1065.7,-131 1075.7,-127.5 1065.7,-124 1065.7,-131"/>
</g>
<!-- 2151180012368 -->
<g id="node24" class="node">
<title>2151180012368</title>
<polygon fill="none" stroke="black" points="2459,-57.5 2459,-93.5 2643,-93.5 2643,-57.5 2459,-57.5"/>
<text text-anchor="middle" x="2469" y="-71.8" font-family="Times New Roman,serif" font-size="14.00"> </text>
<polyline fill="none" stroke="black" points="2479,-57.5 2479,-93.5"/>
<text text-anchor="middle" x="2519.5" y="-71.8" font-family="Times New Roman,serif" font-size="14.00">data 0.1464</text>
<polyline fill="none" stroke="black" points="2560,-57.5 2560,-93.5"/>
<text text-anchor="middle" x="2601.5" y="-71.8" font-family="Times New Roman,serif" font-size="14.00">grad 4.8284</text>
</g>
<!-- 2151180012368&#45;&gt;2151180012496* -->
<g id="edge11" class="edge">
<title>2151180012368&#45;&gt;2151180012496*</title>
<path fill="none" stroke="black" d="M2642.77,-89.15C2651.66,-90.48 2660.28,-91.78 2668.13,-92.96"/>
<polygon fill="black" stroke="black" points="2667.49,-96.4 2677.89,-94.43 2668.53,-89.48 2667.49,-96.4"/>
</g>
<!-- 2151180012368**&#45;1&#45;&gt;2151180012368 -->
<g id="edge9" class="edge">
<title>2151180012368**&#45;1&#45;&gt;2151180012368</title>
<path fill="none" stroke="black" d="M2358.3,-71.98C2380.88,-72.4 2414.96,-73.02 2448.16,-73.63"/>
<polygon fill="black" stroke="black" points="2447.79,-77.12 2457.85,-73.81 2447.91,-70.13 2447.79,-77.12"/>
</g>
<!-- 2151180010896 -->
<g id="node26" class="node">
<title>2151180010896</title>
<polygon fill="none" stroke="black" points="1078.5,-54.5 1078.5,-90.5 1262.5,-90.5 1262.5,-54.5 1078.5,-54.5"/>
<text text-anchor="middle" x="1088.5" y="-68.8" font-family="Times New Roman,serif" font-size="14.00"> </text>
<polyline fill="none" stroke="black" points="1098.5,-54.5 1098.5,-90.5"/>
<text text-anchor="middle" x="1139" y="-68.8" font-family="Times New Roman,serif" font-size="14.00">data 2.0000</text>
<polyline fill="none" stroke="black" points="1179.5,-54.5 1179.5,-90.5"/>
<text text-anchor="middle" x="1221" y="-68.8" font-family="Times New Roman,serif" font-size="14.00">grad 0.2203</text>
</g>
<!-- 2151180010896&#45;&gt;2151180011792* -->
<g id="edge26" class="edge">
<title>2151180010896&#45;&gt;2151180011792*</title>
<path fill="none" stroke="black" d="M1262.27,-88.36C1271.73,-90.02 1280.92,-91.62 1289.23,-93.07"/>
<polygon fill="black" stroke="black" points="1288.4,-96.48 1298.85,-94.76 1289.6,-89.59 1288.4,-96.48"/>
</g>
<!-- 2151180012496 -->
<g id="node27" class="node">
<title>2151180012496</title>
<polygon fill="none" stroke="black" points="2769,-80.5 2769,-116.5 2957,-116.5 2957,-80.5 2769,-80.5"/>
<text text-anchor="middle" x="2781" y="-94.8" font-family="Times New Roman,serif" font-size="14.00">o</text>
<polyline fill="none" stroke="black" points="2793,-80.5 2793,-116.5"/>
<text text-anchor="middle" x="2833.5" y="-94.8" font-family="Times New Roman,serif" font-size="14.00">data 0.7071</text>
<polyline fill="none" stroke="black" points="2874,-80.5 2874,-116.5"/>
<text text-anchor="middle" x="2915.5" y="-94.8" font-family="Times New Roman,serif" font-size="14.00">grad 1.0000</text>
</g>
<!-- 2151180012496*&#45;&gt;2151180012496 -->
<g id="edge10" class="edge">
<title>2151180012496*&#45;&gt;2151180012496</title>
<path fill="none" stroke="black" d="M2733.29,-98.5C2740.52,-98.5 2748.82,-98.5 2757.66,-98.5"/>
<polygon fill="black" stroke="black" points="2757.57,-102 2767.57,-98.5 2757.57,-95 2757.57,-102"/>
</g>
</g>
</svg>
