<?xml version="1.0" encoding="UTF-8" standalone="no"?>
<!DOCTYPE svg PUBLIC "-//W3C//DTD SVG 1.1//EN"
 "http://www.w3.org/Graphics/SVG/1.1/DTD/svg11.dtd">
<!-- Generated by graphviz version 7.1.0 (20230121.1956)
 -->
<!-- Pages: 1 -->
<svg width="1167pt" height="156pt"
 viewBox="0.00 0.00 1167.00 156.00" xmlns="http://www.w3.org/2000/svg" xmlns:xlink="http://www.w3.org/1999/xlink">
<g id="graph0" class="graph" transform="scale(1 1) rotate(0) translate(4 152)">
<polygon fill="white" stroke="none" points="-4,4 -4,-152 1163,-152 1163,4 -4,4"/>
<!-- 2151172230672 -->
<g id="node1" class="node">
<title>2151172230672</title>
<polygon fill="none" stroke="black" points="965,-27.5 965,-63.5 1159,-63.5 1159,-27.5 965,-27.5"/>
<text text-anchor="middle" x="977.5" y="-41.8" font-family="Times New Roman,serif" font-size="14.00">L</text>
<polyline fill="none" stroke="black" points="990,-27.5 990,-63.5"/>
<text text-anchor="middle" x="1033" y="-41.8" font-family="Times New Roman,serif" font-size="14.00">data &#45;8.0000</text>
<polyline fill="none" stroke="black" points="1076,-27.5 1076,-63.5"/>
<text text-anchor="middle" x="1117.5" y="-41.8" font-family="Times New Roman,serif" font-size="14.00">grad 1.0000</text>
</g>
<!-- 2151172230672* -->
<g id="node2" class="node">
<title>2151172230672*</title>
<ellipse fill="none" stroke="black" cx="902" cy="-45.5" rx="27" ry="18"/>
<text text-anchor="middle" x="902" y="-41.8" font-family="Times New Roman,serif" font-size="14.00">*</text>
</g>
<!-- 2151172230672*&#45;&gt;2151172230672 -->
<g id="edge1" class="edge">
<title>2151172230672*&#45;&gt;2151172230672</title>
<path fill="none" stroke="black" d="M929.45,-45.5C936.67,-45.5 944.97,-45.5 953.82,-45.5"/>
<polygon fill="black" stroke="black" points="953.75,-49 963.75,-45.5 953.75,-42 953.75,-49"/>
</g>
<!-- 2151172230160 -->
<g id="node3" class="node">
<title>2151172230160</title>
<polygon fill="none" stroke="black" points="647,-55.5 647,-91.5 839,-91.5 839,-55.5 647,-55.5"/>
<text text-anchor="middle" x="659" y="-69.8" font-family="Times New Roman,serif" font-size="14.00">d</text>
<polyline fill="none" stroke="black" points="671,-55.5 671,-91.5"/>
<text text-anchor="middle" x="711.5" y="-69.8" font-family="Times New Roman,serif" font-size="14.00">data 4.0000</text>
<polyline fill="none" stroke="black" points="752,-55.5 752,-91.5"/>
<text text-anchor="middle" x="795.5" y="-69.8" font-family="Times New Roman,serif" font-size="14.00">grad &#45;2.0000</text>
</g>
<!-- 2151172230160&#45;&gt;2151172230672* -->
<g id="edge5" class="edge">
<title>2151172230160&#45;&gt;2151172230672*</title>
<path fill="none" stroke="black" d="M838.95,-56.57C847.87,-54.98 856.49,-53.44 864.33,-52.04"/>
<polygon fill="black" stroke="black" points="864.84,-55.5 874.07,-50.3 863.61,-48.61 864.84,-55.5"/>
</g>
<!-- 2151172230160+ -->
<g id="node4" class="node">
<title>2151172230160+</title>
<ellipse fill="none" stroke="black" cx="584" cy="-73.5" rx="27" ry="18"/>
<text text-anchor="middle" x="584" y="-69.8" font-family="Times New Roman,serif" font-size="14.00">+</text>
</g>
<!-- 2151172230160+&#45;&gt;2151172230160 -->
<g id="edge2" class="edge">
<title>2151172230160+&#45;&gt;2151172230160</title>
<path fill="none" stroke="black" d="M611.28,-73.5C618.52,-73.5 626.85,-73.5 635.72,-73.5"/>
<polygon fill="black" stroke="black" points="635.69,-77 645.69,-73.5 635.69,-70 635.69,-77"/>
</g>
<!-- 2151172227600 -->
<g id="node5" class="node">
<title>2151172227600</title>
<polygon fill="none" stroke="black" points="324,-83.5 324,-119.5 520,-119.5 520,-83.5 324,-83.5"/>
<text text-anchor="middle" x="335.5" y="-97.8" font-family="Times New Roman,serif" font-size="14.00">e</text>
<polyline fill="none" stroke="black" points="347,-83.5 347,-119.5"/>
<text text-anchor="middle" x="390" y="-97.8" font-family="Times New Roman,serif" font-size="14.00">data &#45;6.0000</text>
<polyline fill="none" stroke="black" points="433,-83.5 433,-119.5"/>
<text text-anchor="middle" x="476.5" y="-97.8" font-family="Times New Roman,serif" font-size="14.00">grad &#45;2.0000</text>
</g>
<!-- 2151172227600&#45;&gt;2151172230160+ -->
<g id="edge8" class="edge">
<title>2151172227600&#45;&gt;2151172230160+</title>
<path fill="none" stroke="black" d="M519.76,-84.57C529.05,-82.94 538.02,-81.37 546.14,-79.95"/>
<polygon fill="black" stroke="black" points="546.64,-83.42 555.89,-78.25 545.43,-76.52 546.64,-83.42"/>
</g>
<!-- 2151172227600* -->
<g id="node6" class="node">
<title>2151172227600*</title>
<ellipse fill="none" stroke="black" cx="260" cy="-101.5" rx="27" ry="18"/>
<text text-anchor="middle" x="260" y="-97.8" font-family="Times New Roman,serif" font-size="14.00">*</text>
</g>
<!-- 2151172227600*&#45;&gt;2151172227600 -->
<g id="edge3" class="edge">
<title>2151172227600*&#45;&gt;2151172227600</title>
<path fill="none" stroke="black" d="M287.42,-101.5C294.87,-101.5 303.46,-101.5 312.62,-101.5"/>
<polygon fill="black" stroke="black" points="312.53,-105 322.53,-101.5 312.53,-98 312.53,-105"/>
</g>
<!-- 2151172227664 -->
<g id="node7" class="node">
<title>2151172227664</title>
<polygon fill="none" stroke="black" points="323,-28.5 323,-64.5 521,-64.5 521,-28.5 323,-28.5"/>
<text text-anchor="middle" x="334.5" y="-42.8" font-family="Times New Roman,serif" font-size="14.00">c</text>
<polyline fill="none" stroke="black" points="346,-28.5 346,-64.5"/>
<text text-anchor="middle" x="390" y="-42.8" font-family="Times New Roman,serif" font-size="14.00">data 10.0000</text>
<polyline fill="none" stroke="black" points="434,-28.5 434,-64.5"/>
<text text-anchor="middle" x="477.5" y="-42.8" font-family="Times New Roman,serif" font-size="14.00">grad &#45;2.0000</text>
</g>
<!-- 2151172227664&#45;&gt;2151172230160+ -->
<g id="edge7" class="edge">
<title>2151172227664&#45;&gt;2151172230160+</title>
<path fill="none" stroke="black" d="M520.68,-62.98C529.67,-64.5 538.34,-65.96 546.22,-67.29"/>
<polygon fill="black" stroke="black" points="545.56,-70.73 556,-68.94 546.72,-63.83 545.56,-70.73"/>
</g>
<!-- 2151172164240 -->
<g id="node8" class="node">
<title>2151172164240</title>
<polygon fill="none" stroke="black" points="5,-111.5 5,-147.5 192,-147.5 192,-111.5 5,-111.5"/>
<text text-anchor="middle" x="16.5" y="-125.8" font-family="Times New Roman,serif" font-size="14.00">a</text>
<polyline fill="none" stroke="black" points="28,-111.5 28,-147.5"/>
<text text-anchor="middle" x="68.5" y="-125.8" font-family="Times New Roman,serif" font-size="14.00">data 2.0000</text>
<polyline fill="none" stroke="black" points="109,-111.5 109,-147.5"/>
<text text-anchor="middle" x="150.5" y="-125.8" font-family="Times New Roman,serif" font-size="14.00">grad 6.0000</text>
</g>
<!-- 2151172164240&#45;&gt;2151172227600* -->
<g id="edge9" class="edge">
<title>2151172164240&#45;&gt;2151172227600*</title>
<path fill="none" stroke="black" d="M191.82,-113.29C202.57,-111.41 213.01,-109.57 222.33,-107.94"/>
<polygon fill="black" stroke="black" points="222.74,-111.42 231.99,-106.24 221.53,-104.52 222.74,-111.42"/>
</g>
<!-- 2151179859216 -->
<g id="node9" class="node">
<title>2151179859216</title>
<polygon fill="none" stroke="black" points="0,-56.5 0,-92.5 197,-92.5 197,-56.5 0,-56.5"/>
<text text-anchor="middle" x="12" y="-70.8" font-family="Times New Roman,serif" font-size="14.00">b</text>
<polyline fill="none" stroke="black" points="24,-56.5 24,-92.5"/>
<text text-anchor="middle" x="67" y="-70.8" font-family="Times New Roman,serif" font-size="14.00">data &#45;3.0000</text>
<polyline fill="none" stroke="black" points="110,-56.5 110,-92.5"/>
<text text-anchor="middle" x="153.5" y="-70.8" font-family="Times New Roman,serif" font-size="14.00">grad &#45;4.0000</text>
</g>
<!-- 2151179859216&#45;&gt;2151172227600* -->
<g id="edge4" class="edge">
<title>2151179859216&#45;&gt;2151172227600*</title>
<path fill="none" stroke="black" d="M196.88,-90.98C205.84,-92.5 214.48,-93.96 222.33,-95.29"/>
<polygon fill="black" stroke="black" points="221.64,-98.72 232.08,-96.94 222.8,-91.82 221.64,-98.72"/>
</g>
<!-- 2151172230480 -->
<g id="node10" class="node">
<title>2151172230480</title>
<polygon fill="none" stroke="black" points="648,-0.5 648,-36.5 838,-36.5 838,-0.5 648,-0.5"/>
<text text-anchor="middle" x="658.5" y="-14.8" font-family="Times New Roman,serif" font-size="14.00">f</text>
<polyline fill="none" stroke="black" points="669,-0.5 669,-36.5"/>
<text text-anchor="middle" x="712" y="-14.8" font-family="Times New Roman,serif" font-size="14.00">data &#45;2.0000</text>
<polyline fill="none" stroke="black" points="755,-0.5 755,-36.5"/>
<text text-anchor="middle" x="796.5" y="-14.8" font-family="Times New Roman,serif" font-size="14.00">grad 4.0000</text>
</g>
<!-- 2151172230480&#45;&gt;2151172230672* -->
<g id="edge6" class="edge">
<title>2151172230480&#45;&gt;2151172230672*</title>
<path fill="none" stroke="black" d="M837.59,-34.6C846.95,-36.2 856,-37.76 864.21,-39.17"/>
<polygon fill="black" stroke="black" points="863.6,-42.62 874.05,-40.87 864.79,-35.72 863.6,-42.62"/>
</g>
</g>
</svg>
